<svg width="204" height="225" viewBox="0 0 204 225" fill="none" xmlns="http://www.w3.org/2000/svg">
<path fill-rule="evenodd" clip-rule="evenodd" d="M78.1347 0.453887C50.4373 3.16422 25.1059 17.8131 10.8891 39.3386C1.78676 53.1181 -1.5277 68.0262 1.15793 83.1072C3.90383 98.5207 13.3835 113.301 27.3252 123.909C29.2169 125.352 38.6363 131.301 73.7591 153.254C89.2598 162.943 92.852 165.666 94.5891 169.052C95.8887 171.584 96.0092 175.965 94.8433 178.212C91.3638 184.906 80.8439 186.409 70.5285 181.685C59.7178 176.735 49.7902 166.25 44.673 154.38C43.2608 151.106 42.5114 149.959 41.6049 149.682C40.9446 149.48 34.4048 148.503 27.0736 147.511C19.7425 146.521 10.7057 145.261 6.99296 144.714C3.28024 144.169 0.154421 143.808 0.0496156 143.913C-0.422008 144.384 2.57804 157.124 4.40951 162.437C9.59999 177.479 16.5381 188.485 27.6501 199.311C38.6913 210.068 49.3133 216.589 63.1738 221.122C86.4798 228.742 108.609 223.961 123.932 207.994C128.177 203.572 130.545 200.356 132.67 196.121C143.866 173.823 137.499 147.54 117.206 132.283C115.086 130.689 100.332 121.272 84.423 111.355C49.9552 89.8738 52.1614 91.3324 49.384 88.1822C44.1543 82.2483 41.8774 74.5127 42.3516 64.2789C42.8049 54.4615 45.0451 46.1262 49.7299 36.8352C53.5579 29.2436 57.9152 23.3333 64.5231 16.7656C70.6569 10.672 76.4002 6.38781 83.0606 2.93901C85.4632 1.69514 87.4336 0.506261 87.4362 0.299385C87.4414 -0.151027 83.6684 -0.0881789 78.1347 0.453887ZM109.228 1.1714C98.1132 3.18779 88.7148 8.08995 80.9383 15.9303C73.3477 23.5847 68.9407 31.7366 66.8498 41.9887C63.5485 58.1852 68.7022 74.984 80.7129 87.174C85.0388 91.5629 88.293 93.883 102.533 102.716C147.414 130.563 151.147 132.959 153.898 135.677C160.716 142.415 163.386 154.38 161.088 167.889C157.273 190.329 142.087 210.736 120.62 222.274C118.427 223.453 116.63 224.584 116.627 224.788C116.614 225.367 125.273 224.694 132.214 223.576C166.931 217.974 196.848 192.264 202.903 162.822C203.453 160.143 203.78 156.302 203.778 152.518C203.773 136.269 197.694 121.576 185.84 109.158C178.436 101.401 178.562 101.49 142.527 79.1163C113.229 60.9244 111.748 59.8664 109.443 55.4801C106.466 49.8238 109.613 43.2614 116.32 41.1403C119.349 40.1818 126.696 40.7527 131.088 42.2899C142.255 46.1969 154.365 58.4261 159.516 71.001C160.554 73.5359 161.497 75.0914 162.144 75.3349C162.699 75.5444 166.095 76.0865 169.693 76.5369C173.29 76.9899 182.408 78.1814 189.957 79.1844C197.503 80.1873 203.796 80.8918 203.94 80.7477C204.443 80.245 201.655 67.9424 199.855 62.7417C189.972 34.1353 167.633 12.1358 139.509 3.30563C130.658 0.527211 117.79 -0.38147 109.228 1.1714ZM15.9328 59.5103C12.7232 61.2543 13.1712 65.7584 16.7032 67.2694L18.7783 68.1598L26.5077 91.9871C30.7602 105.091 34.4388 116.066 34.6851 116.375C34.9314 116.681 39.121 119.397 43.997 122.408C68.7101 137.667 77.1181 143.098 76.9766 143.719C76.6858 144.984 78.0299 147.288 79.4998 148.048C83.2544 149.988 87.3943 145.882 85.4134 142.182C85.1305 141.65 84.2187 140.865 83.3933 140.438C82.1592 139.802 81.5409 139.765 79.9531 140.241L78.0168 140.82L59.4637 129.392C49.2583 123.105 39.8834 117.318 38.631 116.532C36.4668 115.17 36.2755 114.856 34.6877 110.014C33.7707 107.217 33.1445 104.803 33.2964 104.651C33.4484 104.499 40.3393 108.587 48.6111 113.735L63.6506 123.1L69.3285 121.301C72.4517 120.313 75.381 119.604 75.8421 119.724C76.3006 119.842 82.0387 123.199 88.5943 127.18C99.6014 133.865 100.511 134.525 100.516 135.834C100.524 137.832 101.252 138.958 103.008 139.684C105.963 140.909 109.073 138.922 109.073 135.808C109.073 132.605 105.436 130.602 102.486 132.179C101.724 132.587 101.189 132.49 100.131 131.749C96.8189 129.437 76.3609 117.071 75.8447 117.071C75.5303 117.071 72.7032 117.881 69.5617 118.87L63.8498 120.667L52.6304 113.678C46.46 109.833 39.4275 105.481 37.0039 104.004C34.5777 102.53 32.3349 101.011 32.0178 100.629C31.3995 99.8798 29.4842 94.2235 24.2439 77.6446C21.0342 67.4894 20.9478 67.0809 21.7338 65.7506C22.96 63.674 22.7478 61.8907 21.0762 60.2173C19.4648 58.6068 17.9739 58.4026 15.9328 59.5103ZM16.6324 61.8435C15.1913 63.2838 16.4752 65.507 18.5687 65.198C20.0962 64.9702 20.9451 63.5378 20.2299 62.3934C19.5512 61.3145 17.4787 60.9977 16.6324 61.8435ZM27.0343 67.7591C25.1583 69.6341 25.0692 71.873 26.7985 73.604C27.4798 74.2822 28.6143 74.8374 29.3217 74.8374C30.8257 74.8374 30.8021 74.7903 36.5113 88.3655L40.4049 97.6225L48.7054 102.813C56.1964 107.498 57.0689 107.919 57.6401 107.154C58.3292 106.233 57.4331 105.565 46.8897 99.1256L42.3071 96.3289L40.6773 92.4951C33.2414 75.0128 32.9637 74.2168 33.8178 72.7713C34.989 70.7889 34.8056 69.4167 33.1497 67.7591C32.1462 66.7562 31.1741 66.29 30.092 66.29C29.0099 66.29 28.0378 66.7562 27.0343 67.7591ZM28.6195 69.2701C26.5496 71.3388 29.4422 74.023 31.6222 72.0537C32.8563 70.9356 32.8536 70.5585 31.6012 69.3067C30.3488 68.0524 29.8431 68.0472 28.6195 69.2701ZM121.17 78.2574C119.197 80.2266 119.179 81.9969 121.107 83.9268C122.622 85.4378 124.472 85.8044 126.128 84.9193C126.835 84.5422 130.194 86.4041 142.569 94.0323C151.124 99.3037 160.299 104.947 162.961 106.571C165.623 108.191 168.026 109.805 168.301 110.153C168.802 110.784 171.956 119.955 171.956 120.774C171.956 121.015 171.333 120.798 170.573 120.292C169.81 119.787 163.003 115.571 155.442 110.92L141.694 102.467L135.668 104.25C132.353 105.232 129.484 105.947 129.293 105.843C127.846 105.052 109.883 93.9694 108.193 92.8277C106.474 91.665 106.055 91.0837 106.055 89.8738C106.055 86.4591 101.181 84.5239 98.611 86.9174C95.1158 90.1724 98.2704 95.305 102.919 93.9223C104.789 93.3672 104.844 93.396 117.028 100.888L129.256 108.409L134.887 106.712C137.981 105.777 140.774 105.012 141.094 105.01C141.592 105.005 148.986 109.49 169.035 121.958L173.41 124.679L178.137 139.1C182.827 153.4 182.859 153.534 181.939 154.723C180.603 156.451 180.739 159.08 182.246 160.586C183.65 161.987 185.44 162.157 187.515 161.084C189.089 160.272 189.564 159.405 189.564 157.349C189.564 155.571 188.615 154.317 186.519 153.322C184.839 152.523 184.792 152.403 177.7 130.647L170.57 108.775L159.566 101.943C152.63 97.6382 145.695 93.3357 138.754 89.0385C129.183 83.1124 128.934 82.916 128.549 80.9756C128.072 78.5585 126.89 77.4037 124.503 77.0161C122.963 76.7674 122.48 76.9454 121.17 78.2574ZM122.68 79.5851C121.875 80.5566 122.192 82.3949 123.285 83.0784C125.255 84.3144 127.262 80.8944 125.376 79.517C124.21 78.6659 123.426 78.6868 122.68 79.5851ZM99.515 88.9154C98.7027 90.4316 99.7036 91.9321 101.527 91.9321C103.351 91.9321 104.352 90.4316 103.539 88.9154C103.188 88.2607 102.486 87.9098 101.527 87.9098C100.568 87.9098 99.8661 88.2607 99.515 88.9154ZM147.793 118.347C147.448 118.763 147.251 119.185 147.361 119.279C147.469 119.376 150.728 121.434 154.601 123.854C158.473 126.273 162.031 128.622 162.506 129.073C163.483 130.002 169.313 144.261 170.919 149.645L171.977 153.204L170.709 154.471C168.003 157.176 169.847 161.819 173.625 161.819C178.011 161.819 179.738 155.299 175.753 153.783C174.875 153.45 174.304 152.476 173.476 149.912C171.511 143.805 165.299 128.408 164.465 127.572C163.865 126.967 151.197 119.056 148.747 117.755C148.572 117.661 148.142 117.928 147.793 118.347ZM103.042 134.41C102.261 135.352 102.756 137.471 103.857 137.893C104.944 138.309 107.061 136.903 107.061 135.764C107.061 133.815 104.305 132.888 103.042 134.41ZM79.94 142.913C79.5967 143.326 79.3898 144.185 79.4788 144.822C79.6151 145.78 79.9505 145.982 81.4046 145.982C83.0815 145.982 83.1654 145.898 83.1654 144.222C83.1654 142.703 82.9872 142.441 81.8632 142.31C81.1479 142.229 80.2832 142.499 79.94 142.913ZM172.245 156.074C171.81 156.509 171.453 157.171 171.453 157.546C171.453 157.92 171.81 158.583 172.245 159.017C172.679 159.452 173.342 159.808 173.717 159.808C174.092 159.808 174.755 159.452 175.19 159.017C175.625 158.583 175.981 157.92 175.981 157.546C175.981 157.171 175.625 156.509 175.19 156.074C174.755 155.639 174.092 155.283 173.717 155.283C173.342 155.283 172.679 155.639 172.245 156.074ZM183.815 156.074C183.38 156.509 183.024 157.171 183.024 157.546C183.024 158.407 184.399 159.808 185.246 159.808C186.005 159.808 187.551 158.206 187.551 157.417C187.551 156.642 186.108 155.283 185.288 155.283C184.913 155.283 184.25 155.639 183.815 156.074Z" fill="white"/>
</svg>
